<svg xmlns="http://www.w3.org/2000/svg" viewBox="0 0 760 320" font-family="ui-monospace,SFMono-Regular,Menlo,monospace" font-size="12">
<rect width="760" height="320" fill="#F2F1EC"/>
<line x1="56" y1="246.0" x2="704" y2="246.0" stroke="#D8D6CF"/>
<text x="48" y="250.0" text-anchor="end" fill="#6B6B66">0%</text>
<line x1="56" y1="191.5" x2="704" y2="191.5" stroke="#D8D6CF"/>
<text x="48" y="195.5" text-anchor="end" fill="#6B6B66">25%</text>
<line x1="56" y1="137.0" x2="704" y2="137.0" stroke="#D8D6CF"/>
<text x="48" y="141.0" text-anchor="end" fill="#6B6B66">50%</text>
<line x1="56" y1="82.5" x2="704" y2="82.5" stroke="#D8D6CF"/>
<text x="48" y="86.5" text-anchor="end" fill="#6B6B66">75%</text>
<line x1="56" y1="28.0" x2="704" y2="28.0" stroke="#D8D6CF"/>
<text x="48" y="32.0" text-anchor="end" fill="#6B6B66">100%</text>
<rect x="96.5" y="28.0" width="81.0" height="218.0" fill="#1F6F4A"/>
<text x="137.0" y="21.0" text-anchor="middle" fill="#0F0F0E" font-weight="bold">100%</text>
<text x="137.0" y="264.0" text-anchor="middle" fill="#6B6B66">laptop + 2 phones,</text>
<text x="137.0" y="278.0" text-anchor="middle" fill="#6B6B66">30B</text>
<rect x="258.5" y="217.0" width="81.0" height="29.0" fill="#1F6F4A"/>
<text x="299.0" y="210.0" text-anchor="middle" fill="#0F0F0E" font-weight="bold">13%</text>
<text x="299.0" y="264.0" text-anchor="middle" fill="#6B6B66">laptop alone, 0.6B</text>
<rect x="420.5" y="144.2" width="81.0" height="101.8" fill="#1F6F4A"/>
<text x="461.0" y="137.2" text-anchor="middle" fill="#0F0F0E" font-weight="bold">47%</text>
<text x="461.0" y="264.0" text-anchor="middle" fill="#6B6B66">laptop alone, 1.7B</text>
<rect x="582.5" y="144.2" width="81.0" height="101.8" fill="#1F6F4A"/>
<text x="623.0" y="137.2" text-anchor="middle" fill="#0F0F0E" font-weight="bold">47%</text>
<text x="623.0" y="264.0" text-anchor="middle" fill="#6B6B66">laptop + laptop</text>
<text x="623.0" y="278.0" text-anchor="middle" fill="#6B6B66">helper, 1.7B</text>
<text x="623.0" y="292.0" text-anchor="middle" fill="#6B6B66">(split)</text>
<polyline fill="none" stroke="#9A9A93" stroke-width="2" stroke-dasharray="5 4" points="137.0,187.8 299.0,67.2 461.0,172.4 623.0,182.7"/>
<circle cx="137.0" cy="187.8" r="4" fill="#9A9A93"/>
<rect x="143.0" y="180.8" width="52.8" height="15" fill="#F2F1EC"/>
<text x="147.0" y="191.8" text-anchor="start" fill="#9A9A93">7 tok/s</text>
<circle cx="299.0" cy="67.2" r="4" fill="#9A9A93"/>
<rect x="269.4" y="45.2" width="59.2" height="15" fill="#F2F1EC"/>
<text x="299.0" y="56.2" text-anchor="middle" fill="#9A9A93">21 tok/s</text>
<circle cx="461.0" cy="172.4" r="4" fill="#9A9A93"/>
<rect x="467.0" y="165.4" width="52.8" height="15" fill="#F2F1EC"/>
<text x="471.0" y="176.4" text-anchor="start" fill="#9A9A93">9 tok/s</text>
<circle cx="623.0" cy="182.7" r="4" fill="#9A9A93"/>
<rect x="629.0" y="175.7" width="52.8" height="15" fill="#F2F1EC"/>
<text x="633.0" y="186.7" text-anchor="start" fill="#9A9A93">7 tok/s</text>
<text x="56" y="16" fill="#0F0F0E" font-weight="bold">accuracy (bars) and speed (dots) as devices join</text>
<text x="56" y="312" fill="#6B6B66">same 15 coding tasks, same scoring, executed against their tests</text>
</svg>